<?xml version="1.0" standalone="no"?>
<!DOCTYPE svg PUBLIC "-//W3C//DTD SVG 20010904//EN"
 "http://www.w3.org/TR/2001/REC-SVG-20010904/DTD/svg10.dtd">
<svg version="1.0" xmlns="http://www.w3.org/2000/svg"
 width="768.000000pt" height="768.000000pt" viewBox="0 0 768.000000 768.000000"
 preserveAspectRatio="xMidYMid meet">

<g transform="translate(0.000000,768.000000) scale(0.100000,-0.100000)"
fill="#000000" stroke="none">
<path d="M3724 6740 c-291 -188 -389 -256 -392 -271 -3 -16 22 -49 37 -49 4 0
115 70 246 155 131 86 244 154 252 151 11 -5 505 -427 1204 -1031 102 -88 293
-252 424 -365 132 -113 313 -269 404 -347 105 -91 173 -143 187 -143 21 0 34
17 34 44 0 7 -71 74 -157 148 -87 74 -325 278 -529 454 -204 175 -499 429
-655 564 -646 556 -718 617 -799 688 -46 40 -92 78 -101 83 -13 6 -50 -13
-155 -81z"/>
<path d="M3575 6379 c-126 -66 -309 -161 -405 -211 -363 -188 -361 -187 -358
-217 5 -46 41 -38 203 47 500 262 793 412 804 412 8 0 41 -24 75 -53 250 -217
1787 -1441 1895 -1508 26 -17 54 -3 59 28 3 21 2 22 -847 681 -353 274 -538
421 -612 482 -68 57 -308 261 -457 388 -48 40 -95 72 -106 72 -12 0 -124 -55
-251 -121z"/>
<path d="M3435 6016 c-192 -84 -516 -225 -720 -314 -646 -281 -590 -253 -590
-287 0 -23 5 -31 22 -33 13 -2 174 62 370 148 192 84 472 206 623 272 424 185
639 278 646 278 3 0 49 -37 102 -81 453 -381 428 -363 987 -727 55 -36 186
-122 290 -190 105 -69 230 -151 279 -184 97 -63 119 -69 137 -37 16 31 1 43
-266 216 -126 83 -358 235 -515 338 -157 103 -314 206 -350 229 -57 36 -362
285 -568 463 -40 35 -78 63 -85 63 -7 0 -169 -69 -362 -154z"/>
<path d="M3580 5769 c-289 -110 -414 -158 -725 -275 -730 -274 -1131 -427
-1148 -436 -26 -13 -19 -62 9 -66 12 -2 244 81 515 183 272 103 703 265 959
362 256 96 487 184 514 194 l50 18 40 -33 c23 -18 141 -116 263 -217 218 -181
226 -186 444 -304 216 -116 367 -199 764 -414 199 -108 217 -113 223 -59 3 24
-9 32 -135 101 -1113 603 -1033 557 -1166 669 -67 57 -144 121 -171 143 -207
169 -241 195 -260 194 -12 0 -91 -27 -176 -60z"/>
<path d="M3285 5369 c-225 -78 -621 -212 -879 -300 -258 -87 -475 -164 -483
-170 -17 -15 -17 -44 2 -59 16 -13 7 -16 1124 364 575 196 666 225 680 213 9
-8 126 -106 261 -218 l245 -203 249 -108 c898 -389 976 -421 992 -407 8 7 14
23 12 36 -3 21 -24 33 -153 89 -82 36 -339 146 -570 246 -231 99 -438 190
-460 201 -22 11 -89 61 -150 112 -352 294 -417 345 -438 344 -12 0 -206 -63
-432 -140z"/>
<path d="M3455 5134 c-110 -30 -423 -113 -695 -185 -272 -73 -503 -134 -512
-136 -39 -11 -29 -73 12 -73 15 0 646 165 1207 315 l203 55 245 -200 c134
-109 255 -206 267 -214 39 -26 1271 -437 1290 -430 12 3 18 15 18 34 0 33 35
20 -773 291 l-488 164 -267 217 c-163 133 -275 217 -287 217 -11 -1 -110 -26
-220 -55z"/>
<path d="M3240 4790 c-201 -38 -491 -92 -645 -120 -345 -63 -351 -65 -358 -90
-5 -18 15 -50 31 -50 6 0 332 60 977 180 121 23 259 48 307 57 l87 15 223
-184 c123 -101 244 -200 269 -221 44 -36 55 -39 350 -102 816 -176 963 -206
983 -203 32 5 35 54 4 68 -13 5 -300 69 -638 141 -612 130 -615 131 -661 168
-26 20 -118 95 -204 166 -288 238 -298 245 -330 244 -16 0 -194 -32 -395 -69z"/>
<path d="M2891 4465 c-550 -62 -635 -74 -647 -90 -19 -26 -1 -55 35 -55 15 0
310 32 654 70 344 39 638 70 652 70 19 0 75 -41 203 -147 172 -143 310 -256
343 -281 10 -7 165 -29 370 -52 195 -22 490 -56 656 -75 166 -19 309 -32 318
-29 20 8 20 60 -1 68 -13 5 -521 64 -1139 133 l-160 18 -270 222 -270 223 -55
-1 c-30 -1 -340 -34 -689 -74z"/>
<path d="M2816 4199 c-302 -10 -556 -21 -563 -23 -17 -7 -17 -62 0 -69 8 -3
274 3 593 14 318 10 611 18 649 18 l70 0 258 -214 c142 -118 268 -217 280
-219 12 -3 323 -9 692 -15 473 -7 673 -7 682 1 18 14 16 55 -2 62 -8 3 -315
10 -682 17 -516 8 -673 14 -688 24 -11 7 -132 106 -269 219 l-249 206 -111 -1
c-61 -1 -358 -10 -660 -20z"/>
<path d="M2217 3953 c-16 -15 -6 -54 16 -62 12 -5 305 -23 651 -40 572 -28
632 -33 650 -49 12 -11 83 -71 158 -135 142 -122 179 -140 193 -96 8 25 -4 39
-115 133 -47 39 -118 99 -157 134 -51 43 -81 62 -100 62 -27 0 -628 30 -1003
50 -218 12 -284 12 -293 3z"/>
<path d="M2192 3728 c-19 -19 -14 -48 11 -58 12 -5 195 -30 407 -55 212 -25
431 -52 487 -59 60 -7 108 -9 118 -4 19 11 19 42 0 58 -12 10 -922 130 -990
130 -12 0 -26 -5 -33 -12z"/>
<path d="M3775 2891 c-73 -34 -105 -85 -105 -171 0 -60 13 -96 48 -134 37 -39
81 -56 147 -56 72 0 127 28 162 82 24 35 28 52 27 107 0 53 -5 74 -27 107 -48
77 -162 106 -252 65z m152 -71 c60 -36 68 -145 14 -194 -26 -23 -93 -32 -130
-16 -57 23 -81 99 -53 166 25 61 107 82 169 44z"/>
<path d="M3335 2750 c-53 -134 -62 -150 -83 -150 -22 0 -23 -2 -20 -72 l3 -73
33 -3 c31 -3 32 -2 32 37 l0 41 140 0 140 0 0 -40 c0 -38 2 -40 30 -40 l30 0
0 75 c0 67 -2 75 -19 75 -15 0 -31 30 -78 148 l-59 147 -45 3 -45 3 -59 -151z
m146 -37 c19 -53 36 -101 37 -105 2 -4 -33 -8 -78 -8 -94 0 -89 -15 -38 128
17 45 33 82 37 82 4 0 23 -44 42 -97z"/>
<path d="M4128 2785 c-3 -63 -3 -146 0 -185 l5 -70 33 0 34 0 0 110 c0 61 3
110 8 110 4 0 27 -32 52 -70 56 -89 69 -89 130 2 25 37 48 67 53 68 4 0 7 -49
7 -110 l0 -110 35 0 35 0 0 185 0 185 -34 0 c-33 0 -39 -6 -93 -87 -32 -48
-63 -88 -68 -90 -6 -1 -36 38 -68 87 -54 84 -60 90 -91 90 l-33 0 -5 -115z"/>
<path d="M1600 2363 c0 -7 100 -187 128 -230 12 -20 11 -25 -13 -49 -21 -21
-33 -25 -56 -20 -28 5 -29 4 -29 -29 l0 -35 49 0 c82 0 102 26 227 298 l33 72
-44 0 c-37 0 -45 -4 -51 -22 -17 -55 -68 -158 -74 -151 -4 4 -27 45 -50 91
-43 81 -44 82 -82 82 -21 0 -38 -3 -38 -7z"/>
<path d="M2063 2353 c-3 -10 -30 -76 -59 -148 -41 -103 -57 -131 -73 -133 -19
-3 -21 -10 -21 -78 l0 -75 33 3 c29 3 32 6 35 41 l3 37 135 0 134 0 0 -40 c0
-39 1 -40 35 -40 l35 0 0 74 c0 69 -2 75 -22 78 -18 2 -32 29 -81 151 l-59
147 -44 0 c-33 0 -46 -4 -51 -17z m92 -167 c19 -53 35 -101 35 -106 0 -6 -34
-10 -75 -10 -51 0 -75 4 -75 12 0 16 72 210 76 205 2 -2 19 -47 39 -101z"/>
<path d="M2380 2184 l0 -185 37 3 c35 3 42 10 123 123 l85 119 3 -122 3 -122
34 0 35 0 0 186 0 185 -37 -3 c-35 -3 -42 -10 -118 -116 l-80 -113 -3 116 -3
115 -39 0 -40 0 0 -186z"/>
<path d="M2790 2186 l0 -186 83 0 c159 1 217 29 217 107 0 34 -6 49 -26 68
l-26 24 21 27 c28 35 27 76 -3 111 -24 27 -27 28 -145 31 l-121 4 0 -186z
m198 112 c18 -18 14 -56 -7 -68 -11 -5 -40 -10 -65 -10 l-46 0 0 45 0 45 53 0
c29 0 58 -5 65 -12z m22 -157 c25 -47 -2 -71 -81 -71 l-59 0 0 45 0 45 65 0
c53 0 66 -3 75 -19z"/>
<path d="M3162 2188 l3 -183 35 0 c32 0 39 6 120 119 l85 119 3 -121 3 -122
34 0 35 0 0 186 0 185 -37 -3 c-35 -3 -42 -10 -118 -117 l-80 -113 -3 116 -3
116 -40 0 -39 0 2 -182z"/>
<path d="M3540 2335 l0 -35 55 0 54 0 3 -147 3 -148 38 -3 37 -3 0 150 0 151
55 0 55 0 0 35 0 35 -150 0 -150 0 0 -35z"/>
<path d="M3900 2185 l0 -185 130 0 130 0 0 35 0 35 -90 0 -90 0 0 45 0 45 80
0 80 0 0 30 0 30 -80 0 -80 0 0 45 0 45 90 0 90 0 0 30 0 30 -130 0 -130 0 0
-185z"/>
<path d="M4267 2192 c-37 -97 -67 -180 -67 -184 0 -5 16 -8 35 -8 41 0 45 6
100 163 21 59 42 104 46 100 4 -4 28 -64 52 -133 l44 -125 42 -3 c22 -2 41 -1
41 2 0 3 -32 86 -71 186 l-71 180 -41 0 -42 0 -68 -178z"/>
<path d="M4612 2188 l3 -183 69 -3 c91 -4 168 13 195 42 28 30 38 95 21 137
-18 42 -77 68 -152 69 l-58 0 0 60 0 60 -40 0 -40 0 2 -182z m202 -24 c23 -22
20 -60 -6 -78 -13 -9 -43 -16 -70 -16 l-48 0 0 55 0 55 54 0 c36 0 60 -5 70
-16z"/>
<path d="M4970 2184 l0 -185 38 3 37 3 3 73 3 72 84 0 85 0 0 -75 0 -75 35 0
35 0 0 185 0 185 -35 0 -34 0 -3 -72 -3 -73 -82 -3 -83 -3 0 76 0 75 -40 0
-40 0 0 -186z"/>
<path d="M5382 2188 l3 -183 69 -3 c37 -2 92 2 121 8 68 14 96 44 103 109 4
45 2 52 -30 86 -33 36 -38 38 -111 43 l-77 5 0 58 0 59 -40 0 -40 0 2 -182z
m202 -24 c23 -22 20 -60 -6 -78 -13 -9 -43 -16 -70 -16 l-48 0 0 55 0 55 54 0
c36 0 60 -5 70 -16z"/>
<path d="M5712 2188 l3 -183 38 -3 37 -3 0 185 0 186 -40 0 -40 0 2 -182z"/>
<path d="M5863 2347 c8 -13 34 -50 56 -82 23 -32 41 -63 41 -69 0 -6 -27 -50
-60 -98 -33 -47 -60 -89 -60 -93 0 -3 19 -5 42 -3 40 3 45 7 86 66 24 34 47
62 50 62 4 0 26 -30 50 -65 40 -62 44 -65 82 -65 22 0 40 3 40 6 0 7 -70 112
-102 153 -10 13 -18 29 -18 35 0 6 25 46 55 88 30 42 55 79 55 82 0 3 -19 6
-42 6 -41 0 -44 -2 -82 -60 l-39 -60 -41 60 c-40 58 -43 60 -85 60 -43 0 -43
0 -28 -23z"/>
<path d="M4682 1910 c2 -20 11 -27 41 -34 56 -14 111 2 115 34 3 25 2 25 -78
25 -80 0 -81 0 -78 -25z"/>
<path d="M3503 1839 c-43 -13 -100 -71 -111 -112 -7 -27 -13 -32 -38 -32 l-29
0 -3 73 -3 72 -39 0 -40 0 0 -162 c0 -201 2 -208 46 -208 l34 0 0 75 0 75 34
0 c29 0 34 -4 39 -29 8 -41 61 -97 103 -111 20 -7 64 -10 99 -8 50 3 70 10
100 32 102 78 96 250 -11 316 -40 25 -132 35 -181 19z m122 -73 c59 -25 82
-102 50 -171 -18 -37 -51 -55 -100 -55 -74 0 -115 43 -115 120 0 52 13 76 53
100 38 24 66 25 112 6z"/>
<path d="M2961 1818 c-5 -13 -36 -94 -70 -181 -33 -87 -61 -160 -61 -163 0 -3
19 -4 41 -2 l42 3 46 132 c25 73 48 133 51 133 3 0 25 -55 49 -122 24 -68 48
-129 54 -135 10 -14 77 -18 77 -5 0 5 -31 87 -68 183 l-68 174 -42 3 c-36 3
-43 0 -51 -20z"/>
<path d="M3895 1693 c-50 -124 -64 -149 -82 -151 -22 -3 -23 -8 -23 -78 l0
-74 35 0 c34 0 35 1 35 40 l0 40 134 0 135 0 3 -37 c3 -35 6 -38 36 -41 l32
-3 0 75 c0 68 -2 75 -21 78 -17 2 -32 31 -79 148 l-58 145 -44 3 -44 3 -59
-148z m144 -43 c17 -46 31 -90 31 -97 0 -10 -20 -13 -75 -13 -41 0 -75 3 -75
8 0 4 17 53 37 109 23 62 40 98 44 90 4 -7 22 -51 38 -97z"/>
<path d="M4262 1658 l3 -183 127 -3 127 -3 7 25 c3 14 3 30 -1 35 -3 7 -44 11
-96 11 l-90 0 3 43 3 42 83 3 82 3 0 29 0 30 -85 0 -85 0 0 40 c0 45 -6 43
118 40 l62 -1 0 35 0 36 -130 0 -130 0 2 -182z"/>
<path d="M4600 1655 l0 -185 33 0 c31 0 39 7 102 98 108 154 99 152 105 21 l5
-114 35 0 35 0 3 183 2 182 -37 0 c-37 0 -41 -3 -123 -117 l-85 -118 -3 118
-3 117 -34 0 -35 0 0 -185z"/>
</g>
</svg>
